<svg version="1.2" xmlns="http://www.w3.org/2000/svg" viewBox="0 0 250 250" width="250" height="250">
	<style>
		.s0 { fill: #424a52 } 
	</style>
	<path id="M" class="s0" aria-label="M"  d="m54.6 64.9h5.1l29.3 50.8 29.3-50.8h5l-0.2 0.3v77.8h-4.3v-70.2l-29.8 51.5-29.8-51.5v70.2h-4.4v-77.8zm-2.6 0h5l29.4 50.8 29.3-50.8h5l-0.2 0.4v77.7h-4.4v-70.1l-29.7 51.4-29.8-51.4v70.1h-4.4v-77.7z"/>
	<path id="C" class="s0" aria-label="C"  d="m88 177.5l3.3 3q-11.4 10.4-26.9 10.4-16.6 0-28.3-11.6-11.7-11.8-11.7-28.4 0-16.5 11.7-28.2 11.7-11.8 28.3-11.8 15.5 0 26.9 10.4l-3.3 3.1q-10.1-9-23.6-9-14.7 0-25.1 10.4-10.4 10.4-10.4 25.1 0 14.8 10.4 25.2 10.4 10.4 25.1 10.4 13.5 0 23.6-9zm-2.6 0l3.3 3q-11.4 10.4-26.9 10.4-16.6 0-28.3-11.6-11.7-11.8-11.7-28.4 0-16.5 11.7-28.2 11.7-11.8 28.3-11.8 15.5 0 26.9 10.4l-3.3 3.1q-10.1-9-23.6-9-14.7 0-25.1 10.4-10.4 10.4-10.4 25.1 0 14.8 10.4 25.2 10.4 10.4 25.1 10.4 13.5 0 23.6-9z"/>
	<path id="idnight" class="s0" aria-label="idnight"  d="m129.9 128.6h1.3v14.4h-1.3zm0.6-5.1q0.6 0 1 0.4 0.4 0.4 0.4 0.9 0 0.6-0.4 0.9-0.4 0.4-1 0.4-0.5 0-0.9-0.4-0.4-0.3-0.4-0.9 0-0.5 0.4-0.9 0.4-0.4 0.9-0.4zm-1.4 5.1h1.3v14.4h-1.3zm0.7-5.1q0.5 0 0.9 0.4 0.4 0.3 0.4 0.9 0 0.5-0.4 0.9-0.4 0.4-0.9 0.4-0.6 0-1-0.4-0.4-0.4-0.4-0.9 0-0.6 0.4-0.9 0.4-0.4 1-0.4zm22.3-4v23.5h-1.3v-3q-0.4 0.6-0.8 1-2.4 2.4-5.7 2.4-3.4 0-5.7-2.4-2.4-2.3-2.4-5.7 0-3.3 2.4-5.7 2.3-2.3 5.7-2.3 3.3 0 5.7 2.3 0.4 0.5 0.8 1v-11.1zm-1.3 17.1v-2.6q-0.4-1.9-1.8-3.4-2-1.9-4.7-1.9-2.8 0-4.8 1.9-1.9 2-1.9 4.7 0 2.8 1.9 4.7 2 2 4.8 2 2.7 0 4.7-2 1.4-1.4 1.8-3.4zm0.5-17.1v23.5h-1.3v-3q-0.4 0.6-0.8 1-2.4 2.4-5.7 2.4-3.4 0-5.7-2.4-2.4-2.3-2.4-5.7 0-3.3 2.4-5.7 2.3-2.3 5.7-2.3 3.3 0 5.7 2.3 0.4 0.5 0.8 1v-11.1zm-1.3 17.1v-2.6q-0.4-1.9-1.9-3.4-1.9-1.9-4.7-1.9-2.7 0-4.7 1.9-1.9 2-1.9 4.7 0 2.8 1.9 4.7 2 2 4.7 2 2.8 0 4.7-2 1.5-1.4 1.9-3.4zm8.9-4.8v11.2h-1.3v-14.4h1.3v0.9q1.8-1.8 4.2-1.8 2.5 0 4.1 1.6 1.6 1.6 1.6 4v9.7h-1.3v-9.5q0-1.9-1.3-3.2-1.3-1.3-3.1-1.3-1.9 0-3.2 1.3-0.7 0.7-1 1.5zm-0.8 0v11.2h-1.3v-14.4h1.3v0.9q1.8-1.8 4.2-1.8 2.5 0 4.1 1.6 1.6 1.6 1.7 4v9.7h-1.4v-9.5q0-1.9-1.3-3.2-1.3-1.3-3.1-1.3-1.8 0-3.2 1.3-0.7 0.7-1 1.5zm15.7-3.2h1.4v14.4h-1.4zm0.7-5.1q0.6 0 0.9 0.4 0.4 0.3 0.4 0.9 0 0.5-0.4 0.9-0.3 0.4-0.9 0.4-0.5 0-0.9-0.4-0.4-0.4-0.4-0.9 0-0.6 0.4-0.9 0.4-0.4 0.9-0.4zm-1.4 5.1h1.3v14.4h-1.3zm0.6-5.1q0.6 0 0.9 0.3 0.4 0.4 0.4 1 0 0.5-0.4 0.9-0.3 0.4-0.9 0.4-0.5 0-0.9-0.4-0.4-0.4-0.4-0.9 0-0.6 0.4-1 0.4-0.3 0.9-0.3zm21.1 13.2v-2.8q-0.4-1.9-1.9-3.3-1.9-1.9-4.7-1.9-2.7 0-4.7 1.9-1.9 2-1.9 4.7 0 2.8 1.9 4.7 2 2 4.7 2 2.8 0 4.7-2 1.5-1.4 1.9-3.3zm-0.1 3.4q-0.3 0.5-0.8 0.9-2.3 2.3-5.7 2.3-3.3 0-5.7-2.3-2.3-2.4-2.3-5.7 0-3.3 2.3-5.7 2.4-2.3 5.7-2.3 3.4 0 5.7 2.3 0.5 0.5 0.9 1v-2h1.3v11.1q0 3.3-2.3 5.6-2.4 2.3-5.7 2.3-3.3 0-5.7-2.3-0.5-0.5-0.9-1l1.4-0.5q0.2 0.2 0.5 0.5 1.9 1.9 4.7 1.9 2.7 0 4.7-1.9 1.8-1.8 1.9-4.2zm-0.7-3.4v-2.8q-0.4-1.9-1.9-3.3-1.9-1.9-4.7-1.9-2.7 0-4.7 1.9-1.9 2-1.9 4.7 0 2.8 1.9 4.7 2 2 4.7 2 2.8 0 4.7-2 1.5-1.4 1.9-3.3zm-0.1 3.4q-0.3 0.5-0.8 0.9-2.3 2.3-5.7 2.3-3.3 0-5.6-2.3-2.4-2.4-2.4-5.7 0-3.3 2.4-5.7 2.3-2.3 5.6-2.3 3.4 0 5.7 2.3 0.5 0.5 0.9 1v-2h1.3v11.1q0 3.3-2.3 5.6-2.4 2.3-5.7 2.3-3.3 0-5.7-2.3-0.5-0.5-0.9-1l1.4-0.5q0.3 0.2 0.5 0.5 2 1.9 4.7 1.9 2.7 0 4.7-1.9 1.8-1.8 1.9-4.2zm7.7 2.8v-23.4h1.3v9.8q1.6-1.6 4-1.6 2.5 0 4.1 1.6 1.6 1.6 1.7 4v9.6h-1.3v-9.5q0-1.8-1.4-3.1-1.3-1.3-3.1-1.3-1.8 0-3.1 1.3-0.6 0.6-0.9 1.2v11.4zm-0.8 0v-23.4h1.3v9.8q1.7-1.6 4-1.6 2.6 0 4.2 1.6 1.6 1.6 1.6 4v9.6h-1.3v-9.5q0-1.8-1.3-3.1-1.4-1.3-3.2-1.3-1.8 0-3.1 1.3-0.6 0.6-0.9 1.2v11.4zm16.9-14.3h2.9v-6.2h1.4v6.2h2.9v1.3h-2.9v13h-1.4v-13h-2.9zm-0.8 0h3v-6.2h1.3v6.2h2.9v1.3h-2.9v13.1h-1.3v-13.1h-3z"/>
	<path id="art" class="s0" aria-label="art"  d="m112.1 175.6v14.4h-1.3v-2.9q-0.4 0.5-0.8 1-2.4 2.3-5.7 2.3-3.4 0-5.7-2.3-2.4-2.4-2.4-5.7 0-3.4 2.4-5.7 2.3-2.4 5.7-2.4 3.3 0 5.7 2.4 0.4 0.4 0.8 1v-2.1zm-1.3 8.1v-2.6q-0.4-2-1.8-3.4-2-2-4.7-2-2.8 0-4.8 2-1.9 1.9-1.9 4.7 0 2.7 1.9 4.7 2 1.9 4.8 1.9 2.7 0 4.7-1.9 1.4-1.5 1.8-3.4zm0.5-8.1v14.4h-1.3v-2.9q-0.4 0.5-0.8 1-2.4 2.3-5.7 2.3-3.4 0-5.7-2.3-2.4-2.4-2.4-5.7 0-3.4 2.4-5.7 2.3-2.4 5.7-2.4 3.3 0 5.7 2.4 0.4 0.4 0.8 1v-2.1zm-1.3 8.1v-2.6q-0.4-2-1.9-3.4-1.9-2-4.7-2-2.7 0-4.7 2-1.9 1.9-1.9 4.7 0 2.7 1.9 4.7 2 1.9 4.7 1.9 2.8 0 4.7-1.9 1.5-1.5 1.9-3.4zm7.6 6.3v-14.4h1.3v2.6q0.4-0.5 0.9-1.1 1.8-1.7 3.6-1.8v1.4q-1.2 0.1-2.6 1.4-1.9 1.9-1.9 4.5v7.4zm-0.8 0v-14.4h1.3v2.6q0.4-0.5 1-1.1 1.7-1.7 3.5-1.8v1.4q-1.2 0.1-2.5 1.4-1.9 1.9-2 4.5v7.4zm9.9-14.4h2.9v-6.1h1.4v6.1h2.9v1.3h-2.9v13.1h-1.4v-13.1h-2.9zm-0.8 0h3v-6.1h1.3v6.1h2.9v1.4h-2.9v13h-1.3v-13h-3z"/>
</svg>